<svg width="22" height="22" viewBox="0 0 22 22" fill="none" xmlns="http://www.w3.org/2000/svg">
<path d="M14.7715 14.7712C12.6887 16.854 9.31184 16.854 7.22905 14.7712M14.7715 14.7712C16.8543 12.6884 16.8543 9.31152 14.7715 7.22872M14.7715 14.7712L17.6 17.5996M7.22905 14.7712C5.14625 12.6884 5.14625 9.31152 7.22905 7.22872M7.22905 14.7712L4.40066 17.5996M14.7715 7.22872C12.6887 5.14593 9.31184 5.14593 7.22905 7.22872M14.7715 7.22872L17.6 4.4003M7.22905 7.22872L4.40066 4.4003M17.6 17.5996C13.9551 21.2445 8.04556 21.2445 4.40066 17.5996M17.6 17.5996C21.2449 13.9547 21.2449 8.04519 17.6 4.4003M4.40066 17.5996C0.755769 13.9547 0.755769 8.04519 4.40066 4.4003M17.6 4.4003C13.9551 0.755403 8.04556 0.755403 4.40066 4.4003" stroke="url(#paint0_linear_2618_1092)" stroke-width="1.5"/>
<defs>
<linearGradient id="paint0_linear_2618_1092" x1="0.314336" y1="-3.12285" x2="15.6051" y2="25.6756" gradientUnits="userSpaceOnUse">
<stop stop-color="#FFC881"/>
<stop offset="1" stop-color="#DA8517"/>
</linearGradient>
</defs>
</svg>
