<svg width="371" height="229" viewBox="0 0 371 229" fill="none" xmlns="http://www.w3.org/2000/svg">
<path opacity="0.0833333" fill-rule="evenodd" clip-rule="evenodd" d="M89.758 123.514C74.9842 137.96 49.0536 136.498 29.3912 131.675C10.7928 127.113 1.91618 107.623 -14.2463 98.0048C-30.9601 88.058 -54.23 88.7415 -66.923 74.3565C-80.5284 58.9375 -85.7895 37.6346 -85.7976 16.9156C-85.806 -4.77346 -86.557 -33.6312 -66.9694 -45.3287C-44.3425 -58.8411 -15.2813 -30.3706 9.29758 -39.8741C30.1622 -47.9414 28.3974 -92.9222 50.2501 -90.6517C72.9504 -88.2932 58.4708 -42.8586 78.337 -32.7009C101.443 -20.8869 136.596 -51.4289 157.155 -35.9908C174.103 -23.2649 167.982 7.51417 157.143 26.4732C146.377 45.3034 114.175 43.0255 101.741 60.9317C89.1002 79.1356 105.748 107.879 89.758 123.514Z" stroke="url(#paint0_linear_2618_1273)" stroke-opacity="0.83" stroke-width="2"/>
<path opacity="0.166667" fill-rule="evenodd" clip-rule="evenodd" d="M83.214 109.539C66.8922 122.041 41.4509 117.388 22.6037 110.177C4.77625 103.356 -1.66231 82.9309 -16.4787 71.3956C-31.8005 59.4669 -54.8698 57.2709 -65.6889 41.4371C-77.2857 24.4651 -79.9359 2.68834 -77.4665 -17.8606C-74.8815 -39.3716 -72.173 -68.0838 -51.4243 -77.2656C-27.4563 -87.8721 -2.15171 -56.0476 23.2654 -62.4372C44.8415 -67.8611 48.4763 -112.689 69.7925 -107.738C91.9355 -102.595 72.199 -59.3242 90.6097 -46.797C112.023 -32.2269 150.401 -58.1754 168.865 -40.3256C184.086 -25.6118 174.359 4.15725 161.384 21.621C148.497 38.9662 116.959 32.7302 102.534 48.9529C87.8704 65.4454 100.879 96.0078 83.214 109.539Z" stroke="url(#paint1_linear_2618_1273)" stroke-opacity="0.83" stroke-width="2"/>
<path opacity="0.25" fill-rule="evenodd" clip-rule="evenodd" d="M78.6064 95.1058C60.9886 105.503 36.4259 97.7579 18.6816 88.2856C1.89748 79.3258 -2.00735 58.2687 -15.2522 45.0018C-28.9488 31.2823 -51.4644 26.2665 -60.246 9.22634C-69.6589 -9.03871 -69.6607 -30.9707 -64.7548 -51.0548C-59.6192 -72.0793 -53.4969 -100.233 -31.9066 -106.791C-6.96628 -114.367 14.1985 -79.6804 40.0632 -82.894C62.0193 -85.6221 70.9914 -129.651 91.4451 -122.118C112.692 -114.293 88.0076 -73.7877 104.682 -59.0946C124.077 -42.0054 165.088 -63.0308 181.177 -43.0502C194.439 -26.5799 181.26 1.75954 166.351 17.4907C151.543 33.1151 121.15 23.0494 104.959 37.3711C88.4991 51.9309 97.6742 83.8534 78.6064 95.1058Z" stroke="url(#paint2_linear_2618_1273)" stroke-opacity="0.83" stroke-width="2"/>
<path opacity="0.333333" fill-rule="evenodd" clip-rule="evenodd" d="M75.9647 80.457C57.3191 88.6193 34.0077 77.9276 17.6353 66.3556C2.14884 55.4098 0.835767 34.0341 -10.6372 19.2468C-22.5015 3.95503 -44.1215 -3.77793 -50.7334 -21.7638C-57.8205 -41.0426 -55.1752 -62.809 -47.9085 -82.1409C-40.3016 -102.378 -30.8602 -129.57 -8.75654 -133.437C16.7767 -137.903 33.4823 -100.889 59.4016 -100.913C81.404 -100.934 95.5745 -143.532 114.855 -133.553C134.884 -123.187 105.629 -86.0091 120.316 -69.3866C137.397 -50.0535 180.418 -65.9015 193.888 -44.1033C204.992 -26.1347 188.562 0.377802 171.946 14.1657C155.444 27.86 126.657 14.1513 108.946 26.3835C90.9409 38.8191 96.1449 71.623 75.9647 80.457Z" stroke="url(#paint3_linear_2618_1273)" stroke-opacity="0.83" stroke-width="2"/>
<path opacity="0.416667" fill-rule="evenodd" clip-rule="evenodd" d="M75.2917 65.8346C55.8987 71.6671 34.1888 58.218 19.4343 44.7396C5.47813 31.9906 6.77632 10.6141 -2.75244 -5.45945C-12.6062 -22.0813 -33.0059 -32.3878 -37.3488 -51.0445C-42.0038 -71.0424 -36.7515 -92.3249 -27.2334 -110.629C-17.2697 -129.79 -4.6515 -155.63 17.6332 -156.778C43.3756 -158.105 55.3712 -119.332 80.9555 -116.202C102.674 -113.545 121.829 -154.102 139.647 -141.851C158.157 -129.125 124.771 -95.7833 137.249 -77.4972C151.762 -56.2291 196.145 -66.7238 206.794 -43.4485C215.572 -24.2623 196.139 0.053563 178.067 11.7169C160.117 23.301 133.37 6.1911 114.405 16.177C95.1258 26.3289 96.2809 59.5221 75.2917 65.8346Z" stroke="url(#paint4_linear_2618_1273)" stroke-opacity="0.83" stroke-width="2"/>
<path opacity="0.5" fill-rule="evenodd" clip-rule="evenodd" d="M76.5576 51.4778C56.7054 54.9199 36.9197 38.9444 24.0024 23.7814C11.784 9.43894 15.6741 -11.6205 8.23117 -28.7269C0.534324 -46.4168 -18.3417 -59.1147 -20.3511 -78.1574C-22.5049 -98.5689 -14.7236 -119.057 -3.09571 -136.072C9.0766 -153.884 24.6841 -178.004 46.8186 -176.447C72.3874 -174.648 79.4949 -134.715 104.364 -128.512C125.475 -123.247 149.33 -161.182 165.421 -146.867C182.136 -131.996 145.117 -102.944 155.2 -83.2844C166.928 -60.4192 212.014 -65.4648 219.684 -41.075C226.006 -20.97 203.858 0.812334 184.598 10.2015C165.469 19.527 141.158 -0.69164 121.222 6.92472C100.955 14.6677 98.0436 47.7524 76.5576 51.4778Z" stroke="url(#paint5_linear_2618_1273)" stroke-opacity="0.83" stroke-width="2"/>
<path opacity="0.583333" fill-rule="evenodd" clip-rule="evenodd" d="M79.7045 37.6192C59.6851 38.6458 42.114 20.4121 31.2232 3.81119C20.9217 -11.8914 27.3459 -32.3208 22.0976 -50.1913C16.6703 -68.6715 -0.405069 -83.5434 -0.0519993 -102.681C0.326449 -123.195 10.5216 -142.589 24.0879 -158.074C38.2893 -174.284 56.6559 -196.341 78.3149 -192.132C103.334 -187.27 105.451 -146.788 129.239 -137.64C149.432 -129.875 177.636 -164.648 191.764 -148.506C206.439 -131.738 166.331 -107.364 173.872 -86.6425C182.644 -62.5418 227.769 -62.1228 232.348 -36.9975C236.122 -16.2863 211.586 2.66323 191.421 9.66241C171.394 16.6141 149.876 -6.37479 129.262 -1.21616C108.305 4.02827 101.372 36.5082 79.7045 37.6192Z" stroke="url(#paint6_linear_2618_1273)" stroke-opacity="0.83" stroke-width="2"/>
<path opacity="0.666667" fill-rule="evenodd" clip-rule="evenodd" d="M84.6473 24.4815C64.7519 23.1027 49.649 2.91181 40.9414 -14.8595C32.7051 -31.6691 41.5678 -51.1647 38.5887 -69.5197C35.5079 -88.5009 20.48 -105.298 23.1884 -124.239C26.0915 -144.542 38.5503 -162.559 53.856 -176.295C69.8784 -190.674 90.7347 -210.354 111.603 -203.585C135.71 -195.767 132.809 -155.357 155.171 -143.435C174.154 -133.314 206.292 -164.43 218.253 -146.726C230.677 -128.336 188.066 -108.961 192.958 -87.5034C198.648 -62.5465 243.157 -56.7275 244.58 -31.2564C245.753 -10.2601 219.188 5.59885 198.413 10.1271C177.779 14.6246 159.365 -10.7557 138.373 -8.10698C117.031 -5.41423 106.18 25.9739 84.6473 24.4815Z" stroke="url(#paint7_linear_2618_1273)" stroke-opacity="0.83" stroke-width="2"/>
<path opacity="0.75" fill-rule="evenodd" clip-rule="evenodd" d="M91.2735 12.2738C71.7886 8.53444 59.3672 -13.2845 52.9646 -31.942C46.9085 -49.5899 58.078 -67.8618 57.4071 -86.415C56.7133 -105.601 43.9459 -124.046 48.9666 -142.503C54.3482 -162.286 68.8874 -178.663 85.7092 -190.456C103.319 -202.801 126.36 -219.826 146.139 -210.627C168.988 -200.001 161.118 -160.283 181.736 -145.796C199.237 -133.499 234.84 -160.516 244.465 -141.537C254.463 -121.823 209.966 -107.695 212.143 -85.8378C214.675 -60.4159 257.927 -49.3395 256.179 -23.9167C254.739 -2.96022 226.531 9.5954 205.445 11.6077C184.503 13.6063 169.453 -13.7525 148.386 -13.6296C126.968 -13.5046 112.362 16.321 91.2735 12.2738Z" stroke="url(#paint8_linear_2618_1273)" stroke-opacity="0.83" stroke-width="2"/>
<path opacity="0.833333" fill-rule="evenodd" clip-rule="evenodd" d="M99.4498 1.18906C80.6526 -4.83216 71.0828 -27.9275 67.0703 -47.1749C63.2749 -65.3809 76.5851 -82.1576 78.2255 -100.62C79.922 -119.713 69.5912 -139.506 76.846 -157.197C84.6224 -176.159 101.028 -190.658 119.121 -200.343C138.062 -210.482 162.953 -224.611 181.363 -213.146C202.63 -199.901 189.919 -161.483 208.501 -144.678C224.275 -130.413 262.825 -152.95 269.982 -133.002C277.418 -112.28 231.677 -103.571 231.115 -81.6552C230.462 -56.1655 271.842 -40.0494 266.958 -15.0674C262.932 5.52563 233.489 14.613 212.395 14.1004C191.445 13.5913 179.964 -15.3055 159.124 -17.6879C137.936 -20.11 119.794 7.70586 99.4498 1.18906Z" stroke="url(#paint9_linear_2618_1273)" stroke-opacity="0.83" stroke-width="2"/>
<path opacity="0.916667" fill-rule="evenodd" clip-rule="evenodd" d="M109.018 -8.59893C91.1729 -16.7911 84.5792 -40.7942 83.004 -60.3279C81.5141 -78.8047 96.7671 -93.8367 100.686 -111.923C104.739 -130.626 96.9818 -151.45 106.359 -168.105C116.409 -185.958 134.441 -198.367 153.543 -205.81C173.54 -213.601 199.919 -224.638 216.705 -211.101C236.094 -195.464 218.743 -158.933 235.033 -140.089C248.862 -124.093 289.798 -141.834 294.397 -121.233C299.175 -99.8329 252.846 -96.6371 249.564 -75.0041C245.747 -49.8433 284.676 -28.9762 276.737 -4.8201C270.193 15.0922 239.938 20.5965 219.136 17.5862C198.476 14.5963 190.714 -15.3777 170.394 -20.2094C149.737 -25.1215 128.332 0.267477 109.018 -8.59893Z" stroke="url(#paint10_linear_2618_1273)" stroke-opacity="0.83" stroke-width="2"/>
<path fill-rule="evenodd" clip-rule="evenodd" d="M119.801 -16.9378C103.156 -27.1597 99.616 -51.6907 100.487 -71.2045C101.311 -89.6624 118.28 -102.726 124.41 -120.156C130.749 -138.18 125.661 -159.704 137.016 -175.071C149.186 -191.542 168.579 -201.681 188.414 -206.78C209.178 -212.118 236.664 -219.909 251.595 -204.525C268.842 -186.753 247.121 -152.667 260.902 -132.09C272.601 -114.623 315.33 -127.322 317.319 -106.393C319.386 -84.653 273.128 -86.9858 267.188 -65.9711C260.279 -41.5293 296.217 -16.2661 285.353 6.69282C276.398 25.6183 245.764 27.4759 225.547 22.0303C205.468 16.6217 201.514 -13.9556 182.001 -21.1461C162.165 -28.4561 137.817 -5.87461 119.801 -16.9378Z" stroke="url(#paint11_linear_2618_1273)" stroke-opacity="0.83" stroke-width="2"/>
<defs>
<linearGradient id="paint0_linear_2618_1273" x1="252.052" y1="109.149" x2="-58.6578" y2="-141.478" gradientUnits="userSpaceOnUse">
<stop stop-color="#FFC881"/>
<stop offset="1" stop-color="#DA8517"/>
</linearGradient>
<linearGradient id="paint1_linear_2618_1273" x1="245.257" y1="115.335" x2="-32.9251" y2="-170.419" gradientUnits="userSpaceOnUse">
<stop stop-color="#FFC881"/>
<stop offset="1" stop-color="#DA8517"/>
</linearGradient>
<linearGradient id="paint2_linear_2618_1273" x1="237.916" y1="120.785" x2="-3.80448" y2="-195.908" gradientUnits="userSpaceOnUse">
<stop stop-color="#FFC881"/>
<stop offset="1" stop-color="#DA8517"/>
</linearGradient>
<linearGradient id="paint3_linear_2618_1273" x1="230.122" y1="125.436" x2="28.2628" y2="-217.572" gradientUnits="userSpaceOnUse">
<stop stop-color="#FFC881"/>
<stop offset="1" stop-color="#DA8517"/>
</linearGradient>
<linearGradient id="paint4_linear_2618_1273" x1="221.98" y1="129.239" x2="62.7978" y2="-235.091" gradientUnits="userSpaceOnUse">
<stop stop-color="#FFC881"/>
<stop offset="1" stop-color="#DA8517"/>
</linearGradient>
<linearGradient id="paint5_linear_2618_1273" x1="213.597" y1="132.158" x2="99.2847" y2="-248.208" gradientUnits="userSpaceOnUse">
<stop stop-color="#FFC881"/>
<stop offset="1" stop-color="#DA8517"/>
</linearGradient>
<linearGradient id="paint6_linear_2618_1273" x1="205.083" y1="134.171" x2="137.182" y2="-256.726" gradientUnits="userSpaceOnUse">
<stop stop-color="#FFC881"/>
<stop offset="1" stop-color="#DA8517"/>
</linearGradient>
<linearGradient id="paint7_linear_2618_1273" x1="196.551" y1="135.269" x2="175.931" y2="-260.518" gradientUnits="userSpaceOnUse">
<stop stop-color="#FFC881"/>
<stop offset="1" stop-color="#DA8517"/>
</linearGradient>
<linearGradient id="paint8_linear_2618_1273" x1="188.114" y1="135.456" x2="214.959" y2="-259.523" gradientUnits="userSpaceOnUse">
<stop stop-color="#FFC881"/>
<stop offset="1" stop-color="#DA8517"/>
</linearGradient>
<linearGradient id="paint9_linear_2618_1273" x1="179.884" y1="134.753" x2="253.698" y2="-253.749" gradientUnits="userSpaceOnUse">
<stop stop-color="#FFC881"/>
<stop offset="1" stop-color="#DA8517"/>
</linearGradient>
<linearGradient id="paint10_linear_2618_1273" x1="171.97" y1="133.192" x2="291.578" y2="-243.271" gradientUnits="userSpaceOnUse">
<stop stop-color="#FFC881"/>
<stop offset="1" stop-color="#DA8517"/>
</linearGradient>
<linearGradient id="paint11_linear_2618_1273" x1="164.474" y1="130.818" x2="328.048" y2="-228.232" gradientUnits="userSpaceOnUse">
<stop stop-color="#FFC881"/>
<stop offset="1" stop-color="#DA8517"/>
</linearGradient>
</defs>
</svg>
