<svg width="38" height="48" viewBox="0 0 38 48" fill="none" xmlns="http://www.w3.org/2000/svg">
<path fill-rule="evenodd" clip-rule="evenodd" d="M26.2154 3.66228L26.3434 3.07526C27.1805 -0.765009 32.5261 -1.10443 33.8422 2.59911C33.9902 3.01564 34.0665 3.45427 34.0678 3.89632L34.1694 39.6313C37.7405 40.6312 38.0823 45.5775 34.6638 47.0518C34.1704 47.2645 33.6388 47.3743 33.1015 47.3743H4.00419C-0.480245 47.3743 -1.56881 41.1266 2.65138 39.61C3.0019 39.484 3.36789 39.4077 3.73868 39.3831C2.80176 37.5415 2.3333 35.4523 2.3333 33.1157V8.55607H10.329V32.4325C10.329 33.8728 10.643 35.1531 11.2708 36.2734C11.911 37.3937 12.8096 38.2739 13.9668 38.914C14.289 39.0922 14.6259 39.2457 14.9777 39.3743H21.0515C21.4017 39.2457 21.7362 39.0922 22.0549 38.914C23.2121 38.2739 24.1046 37.3937 24.7325 36.2734C25.3726 35.1531 25.6927 33.8728 25.6927 32.4325V8.55607H26.1333L26.1219 4.54257C26.121 4.24661 26.1524 3.95144 26.2154 3.66228Z" fill="url(#paint0_linear_2618_1052)"/>
<defs>
<linearGradient id="paint0_linear_2618_1052" x1="-2.68457" y1="-12.1552" x2="40.857" y2="51.974" gradientUnits="userSpaceOnUse">
<stop stop-color="#FFC881"/>
<stop offset="1" stop-color="#DA8517"/>
</linearGradient>
</defs>
</svg>
