<svg width="18" height="18" viewBox="0 0 18 18" fill="none" xmlns="http://www.w3.org/2000/svg">
<g id="Iconly/Bulk/Wallet">
<g id="Wallet">
<path id="Fill 1" fill-rule="evenodd" clip-rule="evenodd" d="M16.4973 6.28134H13.3213C11.8433 6.28394 10.646 7.45136 10.6433 8.89242C10.6413 10.3367 11.84 11.5094 13.3213 11.5113H16.5V11.7408C16.5 14.2602 14.9727 15.75 12.388 15.75H5.61267C3.02733 15.75 1.5 14.2602 1.5 11.7408V6.25339C1.5 3.73397 3.02733 2.25 5.61267 2.25H12.3853C14.97 2.25 16.4973 3.73397 16.4973 6.25339V6.28134ZM5.05467 6.2755H9.28467H9.28733H9.29267C9.60933 6.27419 9.86533 6.02264 9.864 5.71324C9.86267 5.40448 9.604 5.15488 9.28733 5.15618H5.05467C4.74 5.15748 4.48467 5.40644 4.48333 5.71389C4.482 6.02264 4.738 6.27419 5.05467 6.2755Z" fill="#A8A8A8"/>
<path id="Fill 4" opacity="0.4" d="M12.0281 9.22255C12.1849 9.93594 12.8104 10.4379 13.5244 10.4248H15.9619C16.259 10.4248 16.5 10.1787 16.5 9.87458V7.97592C16.4994 7.67242 16.259 7.4257 15.9619 7.42505H13.4671C12.6548 7.42766 11.9987 8.10189 12 8.93276C12 9.03001 12.0096 9.12726 12.0281 9.22255Z" fill="#A8A8A8"/>
<circle id="Oval" cx="13.5" cy="8.92505" r="0.75" fill="#A8A8A8"/>
</g>
</g>
</svg>
