<svg width="18" height="18" viewBox="0 0 18 18" fill="none" xmlns="http://www.w3.org/2000/svg">
<g id="Iconly/Bulk/Category">
<g id="Category">
<path id="Fill 1" opacity="0.4" d="M12.0562 1.5H14.5957C15.6474 1.5 16.4996 2.35939 16.4996 3.41997V5.98089C16.4996 7.04148 15.6474 7.90087 14.5957 7.90087H12.0562C11.0045 7.90087 10.1523 7.04148 10.1523 5.98089V3.41997C10.1523 2.35939 11.0045 1.5 12.0562 1.5Z" fill="url(#paint0_linear_2618_997)"/>
<path id="Combined Shape" fill-rule="evenodd" clip-rule="evenodd" d="M3.40389 1.5H5.94337C6.99507 1.5 7.84726 2.35939 7.84726 3.41997V5.98089C7.84726 7.04148 6.99507 7.90087 5.94337 7.90087H3.40389C2.35219 7.90087 1.5 7.04148 1.5 5.98089V3.41997C1.5 2.35939 2.35219 1.5 3.40389 1.5ZM3.40389 10.0991H5.94337C6.99507 10.0991 7.84726 10.9585 7.84726 12.0191V14.58C7.84726 15.6399 6.99507 16.5 5.94337 16.5H3.40389C2.35219 16.5 1.5 15.6399 1.5 14.58V12.0191C1.5 10.9585 2.35219 10.0991 3.40389 10.0991ZM14.5961 10.0991H12.0566C11.0049 10.0991 10.1527 10.9585 10.1527 12.0191V14.58C10.1527 15.6399 11.0049 16.5 12.0566 16.5H14.5961C15.6478 16.5 16.5 15.6399 16.5 14.58V12.0191C16.5 10.9585 15.6478 10.0991 14.5961 10.0991Z" fill="url(#paint1_linear_2618_997)"/>
</g>
</g>
<defs>
<linearGradient id="paint0_linear_2618_997" x1="9.6924" y1="-0.142327" x2="14.9603" y2="9.69608" gradientUnits="userSpaceOnUse">
<stop stop-color="#FFC881"/>
<stop offset="1" stop-color="#DA8517"/>
</linearGradient>
<linearGradient id="paint1_linear_2618_997" x1="0.413044" y1="-2.34868" x2="12.7002" y2="20.793" gradientUnits="userSpaceOnUse">
<stop stop-color="#FFC881"/>
<stop offset="1" stop-color="#DA8517"/>
</linearGradient>
</defs>
</svg>
