<svg width="18" height="18" viewBox="0 0 18 18" fill="none" xmlns="http://www.w3.org/2000/svg">
<g id="Iconly/Bulk/Logout">
<g id="Logout">
<path id="Fill 1" opacity="0.4" d="M1.5 4.83525C1.5 2.997 3.02268 1.5 4.8934 1.5H8.61423C10.4811 1.5 12 2.9925 12 4.82775V13.1648C12 15.0037 10.4773 16.5 8.60584 16.5H4.88653C3.01886 16.5 1.5 15.0075 1.5 13.1722V12.4672V4.83525Z" fill="#A8A8A8"/>
<path id="Fill 3" d="M16.3339 8.5911L14.1996 6.40935C13.979 6.18435 13.624 6.18435 13.4041 6.41085C13.185 6.63735 13.1857 7.0026 13.4056 7.2276L14.575 8.42235H13.4538H7.16107C6.85063 8.42235 6.59863 8.6811 6.59863 8.99985C6.59863 9.31935 6.85063 9.57735 7.16107 9.57735H14.575L13.4056 10.7721C13.1857 10.9971 13.185 11.3623 13.4041 11.5888C13.5144 11.7021 13.6583 11.7591 13.803 11.7591C13.9461 11.7591 14.09 11.7021 14.1996 11.5903L16.3339 9.40935C16.4398 9.3006 16.4997 9.1536 16.4997 8.99985C16.4997 8.84685 16.4398 8.69985 16.3339 8.5911Z" fill="#A8A8A8"/>
</g>
</g>
</svg>
