<svg width="24" height="24" viewBox="0 0 24 24" fill="none" xmlns="http://www.w3.org/2000/svg">
<path opacity="0.4" d="M16.084 1.99988L7.916 1.99988C4.377 1.99988 2 4.27588 2 7.66488L2 16.3349C2 19.7239 4.377 21.9999 7.916 21.9999L16.084 21.9999C19.622 21.9999 22 19.7229 22 16.3339L22 7.66488C22 4.27588 19.622 1.99988 16.084 1.99988Z" fill="url(#paint0_linear_2618_1232)"/>
<path d="M11.145 7.72057L7.38003 11.4686C7.09703 11.7506 7.09703 12.2496 7.38003 12.5326L11.145 16.2806C11.439 16.5726 11.914 16.5716 12.206 16.2776C12.498 15.9836 12.498 15.5096 12.204 15.2166L9.72703 12.7496H16.082C16.497 12.7496 16.832 12.4136 16.832 11.9996C16.832 11.5856 16.497 11.2496 16.082 11.2496L9.72703 11.2496L12.204 8.78357C12.351 8.63657 12.424 8.44457 12.424 8.25157C12.424 8.06057 12.351 7.86857 12.206 7.72257C11.914 7.42957 11.439 7.42857 11.145 7.72057Z" fill="url(#paint1_linear_2618_1232)"/>
<defs>
<linearGradient id="paint0_linear_2618_1232" x1="27.1316" y1="0.550603" x2="-3.72395" y2="16.9335" gradientUnits="userSpaceOnUse">
<stop stop-color="#FFC881"/>
<stop offset="1" stop-color="#DA8517"/>
</linearGradient>
<linearGradient id="paint1_linear_2618_1232" x1="19.3117" y1="6.85027" x2="4.89007" y2="15.0757" gradientUnits="userSpaceOnUse">
<stop stop-color="#FFC881"/>
<stop offset="1" stop-color="#DA8517"/>
</linearGradient>
</defs>
</svg>
