<svg width="18" height="18" viewBox="0 0 18 18" fill="none" xmlns="http://www.w3.org/2000/svg">
<g id="Iconly/Bulk/Activity">
<g id="Activity">
<path id="Path_34168" fill-rule="evenodd" clip-rule="evenodd" d="M11.4321 3.55317C11.4321 5.21892 12.7844 6.56927 14.4526 6.56927C14.6363 6.56836 14.8195 6.55073 15 6.51659V12.4961C15 15.0117 13.5161 16.5 10.9968 16.5H5.50977C2.98388 16.5 1.5 15.0117 1.5 12.4961V7.01707C1.5 4.50146 2.98388 3 5.50977 3H11.4849C11.4494 3.18225 11.4317 3.36751 11.4321 3.55317ZM9.86248 11.1724L12.0059 8.40659V8.39341C12.1894 8.14685 12.1425 7.79917 11.9003 7.60976C11.7831 7.51926 11.6342 7.48009 11.4875 7.50119C11.3408 7.52229 11.209 7.60185 11.1221 7.72171L9.3151 10.0463L7.25745 8.42634C7.13997 8.33482 6.99053 8.29441 6.84286 8.31424C6.69519 8.33406 6.56174 8.41245 6.47264 8.53171L4.25672 11.3898C4.17883 11.4868 4.13689 11.6078 4.13801 11.7322C4.12515 11.9836 4.2839 12.212 4.52428 12.2879C4.76466 12.3637 5.02603 12.268 5.16023 12.0549L7.01343 9.6578L9.07108 11.2712C9.18811 11.3656 9.33854 11.4083 9.4878 11.3897C9.63705 11.3711 9.77231 11.2927 9.86248 11.1724Z" fill="#A8A8A8"/>
<circle id="Ellipse_742" opacity="0.4" cx="14.625" cy="3.375" r="1.875" fill="#A8A8A8"/>
</g>
</g>
</svg>
