<svg width="24" height="24" viewBox="0 0 24 24" fill="none" xmlns="http://www.w3.org/2000/svg">
<path opacity="0.4" d="M7.916 22.0001H16.084C19.623 22.0001 22 19.7241 22 16.3351V7.66512C22 4.27612 19.623 2.00012 16.084 2.00012H7.916C4.378 2.00012 2 4.27712 2 7.66612L2 16.3351C2 19.7241 4.378 22.0001 7.916 22.0001Z" fill="url(#paint0_linear_2618_1230)"/>
<path d="M12.855 16.2794L16.62 12.5314C16.903 12.2494 16.903 11.7504 16.62 11.4674L12.855 7.71943C12.561 7.42743 12.086 7.42843 11.794 7.72243C11.502 8.01643 11.502 8.49043 11.796 8.78343L14.273 11.2504H7.91797C7.50297 11.2504 7.16797 11.5864 7.16797 12.0004C7.16797 12.4144 7.50297 12.7504 7.91797 12.7504H14.273L11.796 15.2164C11.649 15.3634 11.576 15.5554 11.576 15.7484C11.576 15.9394 11.649 16.1314 11.794 16.2774C12.086 16.5704 12.561 16.5714 12.855 16.2794Z" fill="url(#paint1_linear_2618_1230)"/>
<defs>
<linearGradient id="paint0_linear_2618_1230" x1="-3.13158" y1="23.4494" x2="27.724" y2="7.06646" gradientUnits="userSpaceOnUse">
<stop stop-color="#FFC881"/>
<stop offset="1" stop-color="#DA8517"/>
</linearGradient>
<linearGradient id="paint1_linear_2618_1230" x1="4.68833" y1="17.1497" x2="19.1099" y2="8.92426" gradientUnits="userSpaceOnUse">
<stop stop-color="#FFC881"/>
<stop offset="1" stop-color="#DA8517"/>
</linearGradient>
</defs>
</svg>
