<svg width="18" height="18" viewBox="0 0 18 18" fill="none" xmlns="http://www.w3.org/2000/svg">
<g id="Iconly/Bulk/Setting">
<g id="Setting">
<path id="Path" d="M9.0088 11.1226C7.80545 11.1226 6.83203 10.1851 6.83203 9.00757C6.83203 7.83007 7.80545 6.88507 9.0088 6.88507C10.2122 6.88507 11.1626 7.83007 11.1626 9.00757C11.1626 10.1851 10.2122 11.1226 9.0088 11.1226" fill="#A8A8A8"/>
<path id="Path_2" opacity="0.4" d="M15.9226 10.7776C15.777 10.5526 15.57 10.3276 15.3018 10.1851C15.0871 10.0801 14.9492 9.90756 14.8265 9.70506C14.4357 9.06006 14.6656 8.21256 15.3171 7.83006C16.0836 7.40256 16.3288 6.45006 15.8843 5.70756L15.3707 4.82256C14.9339 4.08006 13.9758 3.81756 13.217 4.25256C12.5425 4.61256 11.6764 4.37256 11.2855 3.73506C11.1628 3.52506 11.0938 3.30006 11.1092 3.07506C11.1322 2.78256 11.0402 2.50506 10.9022 2.28006C10.6186 1.81506 10.1051 1.50006 9.53792 1.50006H8.4572C7.89768 1.51506 7.38414 1.81506 7.10055 2.28006C6.95492 2.50506 6.87061 2.78256 6.88594 3.07506C6.90127 3.30006 6.83229 3.52506 6.70965 3.73506C6.31875 4.37256 5.45264 4.61256 4.78582 4.25256C4.01935 3.81756 3.06893 4.08006 2.62438 4.82256L2.11084 5.70756C1.67396 6.45006 1.91923 7.40256 2.67803 7.83006C3.32953 8.21256 3.55947 9.06006 3.17623 9.70506C3.04594 9.90756 2.90797 10.0801 2.69336 10.1851C2.43276 10.3276 2.20282 10.5526 2.08019 10.7776C1.79659 11.2426 1.81192 11.8276 2.09551 12.3151L2.62438 13.2151C2.90797 13.6951 3.43683 13.9951 3.98869 13.9951C4.24929 13.9951 4.55588 13.9201 4.80115 13.7701C4.99276 13.6426 5.2227 13.5976 5.47564 13.5976C6.23444 13.5976 6.87061 14.2201 6.88594 14.9626C6.88594 15.8251 7.59109 16.5001 8.48019 16.5001H9.52259C10.404 16.5001 11.1092 15.8251 11.1092 14.9626C11.1322 14.2201 11.7683 13.5976 12.5271 13.5976C12.7724 13.5976 13.0024 13.6426 13.2016 13.7701C13.4469 13.9201 13.7458 13.9951 14.0141 13.9951C14.5583 13.9951 15.0871 13.6951 15.3707 13.2151L15.9073 12.3151C16.1832 11.8126 16.2062 11.2426 15.9226 10.7776" fill="#A8A8A8"/>
</g>
</g>
</svg>
