<svg width="18" height="18" viewBox="0 0 18 18" fill="none" xmlns="http://www.w3.org/2000/svg">
<g id="Iconly/Bulk/Buy">
<g id="Buy">
<path id="Combined Shape" opacity="0.4" fill-rule="evenodd" clip-rule="evenodd" d="M4.43262 15.4414C4.43262 14.8114 4.94262 14.3014 5.57262 14.3014C6.19512 14.3014 6.70512 14.8114 6.70512 15.4414C6.70512 16.0639 6.19512 16.5739 5.57262 16.5739C4.94262 16.5739 4.43262 16.0639 4.43262 15.4414ZM12.8701 15.4414C12.8701 14.8114 13.3801 14.3014 14.0101 14.3014C14.6326 14.3014 15.1426 14.8114 15.1426 15.4414C15.1426 16.0639 14.6326 16.5739 14.0101 16.5739C13.3801 16.5739 12.8701 16.0639 12.8701 15.4414Z" fill="#A8A8A8"/>
<path id="Fill 7" fill-rule="evenodd" clip-rule="evenodd" d="M15.1431 4.76175C15.6006 4.76175 15.9006 4.91925 16.2006 5.26425C16.5006 5.60925 16.5531 6.10425 16.4856 6.5535L15.7731 11.4735C15.6381 12.4193 14.8281 13.116 13.8756 13.116H5.69306C4.69556 13.116 3.87056 12.351 3.78806 11.3618L3.09806 3.186L1.96556 2.991C1.66556 2.9385 1.45556 2.646 1.50806 2.346C1.56056 2.0385 1.85306 1.836 2.16056 1.881L3.94931 2.151C4.20431 2.19675 4.39181 2.406 4.41431 2.661L4.55681 4.341C4.57931 4.58175 4.77431 4.76175 5.01431 4.76175H15.1431ZM10.5981 8.661H12.6756C12.9906 8.661 13.2381 8.406 13.2381 8.0985C13.2381 7.7835 12.9906 7.536 12.6756 7.536H10.5981C10.2831 7.536 10.0356 7.7835 10.0356 8.0985C10.0356 8.406 10.2831 8.661 10.5981 8.661Z" fill="#A8A8A8"/>
</g>
</g>
</svg>
